<svg xmlns="http://www.w3.org/2000/svg" width="24" height="24" viewBox="0 0 135 135" version="1.1"><g stroke="none" stroke-width="1" fill="none" fill-rule="evenodd"><rect fill="#FFFFFF" x="-8" y="-2" width="139" height="139"/><g transform="translate(14.000000, 21.000000)"><path d="M58 84C77.3 84 93 68.3 93 49 93 29.7 77.3 14 58 14 38.7 14 23 29.7 23 49 23 68.3 38.7 84 58 84ZM58 67C67.9 67 76 58.9 76 49 76 39.1 67.9 31 58 31 48.1 31 40 39.1 40 49 40 58.9 48.1 67 58 67Z" fill="#F22126"/><path d="M0 31L0 84 18 84 18 31 0 31ZM18 13.3L18 31 0 31 18 13.3Z" fill="#F22126"/><path d="M90 5L90 0 107 0 107 17 102 17 102 5 90 5 90 5ZM90 0.1L90 5 85 5 90 0.1ZM102 21.9L102 17 107 17 102 21.9Z" fill="#000000"/><path d="M81 14L81 9 98 9 98 26 93 26 93 14 81 14 81 14ZM81 9.1L81 14 76 14 81 9.1ZM93 30.9L93 26 98 26 93 30.9Z" fill="#000000"/></g></g></svg>
