<?xml version="1.0" encoding="UTF-8"?>
<svg width="24px" height="24px" viewBox="0 0 24 24" version="1.1" xmlns="http://www.w3.org/2000/svg" xmlns:xlink="http://www.w3.org/1999/xlink">
    <!-- Generator: Sketch 52.2 (67145) - http://www.bohemiancoding.com/sketch -->
    <title>Slice 1</title>
    <desc>Created with Sketch.</desc>
    <g id="Page-1" stroke="none" stroke-width="1" fill="none" fill-rule="evenodd">
        <g id="strava" transform="translate(-1.119403, -1.119403)">
            <g id="Group" transform="translate(0.686567, 0.537313)">
                <path d="M12.3731343,0.546268657 C5.77014925,0.546268657 0.397014925,5.91940299 0.397014925,12.5223881 C0.397014925,19.1253731 5.77014925,24.4985075 12.3731343,24.4985075 C18.9761194,24.4985075 24.3492537,19.1253731 24.3492537,12.5223881 C24.3492537,5.91940299 18.9761194,0.546268657 12.3731343,0.546268657 Z" id="Path" fill="#FF5700"></path>
                <path d="M14.4507463,19.961194 L11.2149254,13.6089552 L13.1373134,13.6089552 L14.4507463,16.1761194 L15.7402985,13.6089552 L17.6626866,13.6089552 L14.4507463,19.961194 Z M11.4059701,10.158209 L13.161194,13.6208955 L15.7283582,13.6208955 L11.3820896,5.08358209 L7.08358209,13.6208955 L9.66268657,13.6208955 L11.4059701,10.158209 Z" id="Shape" fill="#FFFFFF" fill-rule="nonzero"></path>
            </g>
        </g>
    </g>
</svg>