<svg version="1.1" x="0" y="0" width="169.1" height="169.1" viewBox="0 0 169.1 169.1" xml:space="preserve"><path d="M122.4 0H46.7C20.9 0 0 20.9 0 46.7v75.8c0 25.7 20.9 46.7 46.7 46.7h75.8c25.7 0 46.7-20.9 46.7-46.7V46.7C169.1 20.9 148.1 0 122.4 0zM154.1 122.4c0 17.5-14.2 31.7-31.7 31.7H46.7C29.2 154.1 15 139.9 15 122.4V46.7C15 29.2 29.2 15 46.7 15h75.8c17.5 0 31.7 14.2 31.7 31.7V122.4zM84.5 41c-24 0-43.6 19.5-43.6 43.6 0 24 19.5 43.6 43.6 43.6s43.6-19.5 43.6-43.6C128.1 60.5 108.6 41 84.5 41zM84.5 113.1c-15.7 0-28.6-12.8-28.6-28.6 0-15.7 12.8-28.6 28.6-28.6s28.6 12.8 28.6 28.6C113.1 100.3 100.3 113.1 84.5 113.1zM129.9 28.3c-2.9 0-5.7 1.2-7.8 3.2 -2.1 2-3.2 4.9-3.2 7.8 0 2.9 1.2 5.7 3.2 7.8 2 2 4.9 3.2 7.8 3.2 2.9 0 5.7-1.2 7.8-3.2 2.1-2 3.2-4.9 3.2-7.8 0-2.9-1.2-5.7-3.2-7.8C135.7 29.4 132.8 28.3 129.9 28.3z"/></svg>
