<svg width="16" height="16"><path fill="#828282" d="M15.969 3.058a6.538 6.538 0 0 1-1.878.515 3.28 3.28 0 0 0 1.438-1.809 6.531 6.531 0 0 1-2.076.793 3.27 3.27 0 0 0-5.572 2.982A9.28 9.28 0 0 1 1.14 2.124a3.27 3.27 0 0 0 1.013 4.365A3.257 3.257 0 0 1 .671 6.08v.041a3.271 3.271 0 0 0 2.623 3.206 3.259 3.259 0 0 1-1.476.056 3.273 3.273 0 0 0 3.055 2.271 6.56 6.56 0 0 1-4.841 1.354 9.254 9.254 0 0 0 5.013 1.469c6.015 0 9.304-4.983 9.304-9.304 0-.142-.003-.283-.009-.423a6.653 6.653 0 0 0 1.629-1.692z"/></svg>