<svg width="16" height="16"><path fill="#828282" d="M7.999.431a7.76 7.76 0 0 0-2.453 15.124c.388.071.53-.168.53-.374 0-.184-.007-.672-.01-1.32-2.159.469-2.614-1.04-2.614-1.04-.353-.896-.862-1.135-.862-1.135-.705-.481.053-.472.053-.472.779.055 1.189.8 1.189.8.692 1.186 1.816.843 2.258.645.071-.502.271-.843.493-1.037-1.723-.197-3.534-.862-3.534-3.836 0-.847.302-1.54.799-2.082-.08-.197-.347-.986.076-2.054 0 0 .652-.209 2.134.796A7.39 7.39 0 0 1 8 4.184a7.45 7.45 0 0 1 1.943.261c1.482-1.004 2.132-.796 2.132-.796.423 1.068.157 1.857.077 2.054.497.542.798 1.235.798 2.082 0 2.981-1.814 3.637-3.543 3.829.279.24.527.713.527 1.437 0 1.037-.01 1.874-.01 2.129 0 .208.14.449.534.373A7.762 7.762 0 0 0 7.999.431z"/></svg>