<svg xmlns="http://www.w3.org/2000/svg" width="24" height="24" viewBox="0 0 53 53" version="1.1"><g stroke="none" stroke-width="1" fill="none" fill-rule="evenodd"><path d="M26.5 0C11.9 0 0 11.9 0 26.5 0 41.1 11.9 53 26.5 53 41.1 53 53 41.1 53 26.5 53 11.9 41.1 0 26.5 0L26.5 0 26.5 0ZM26.5 21.5C25.8 21.5 25.3 22.1 25.3 22.8L25.3 41.1C25.3 41.8 25.8 42.4 26.5 42.4 27.2 42.4 27.7 41.8 27.7 41.1L27.7 36.2C27.7 34.7 28.4 33.6 29.8 33 30.9 32.5 32 32.5 32.1 32.5 32.7 32.5 33.3 31.9 33.3 31.2 33.3 30.6 32.8 30 32.1 30 30.3 30 28.9 30.4 27.7 31.2L27.7 22.8C27.7 22.1 27.2 21.5 26.5 21.5M27.2 10.6C23.6 10.6 20.7 13.6 20.7 17.2L20.7 17.3C17.2 18 14.6 21.2 14.6 24.9 14.6 27.1 15.5 29.2 17.2 30.6 17.5 31 19.6 32.6 22.4 32.6L22.4 32.6 22.6 32.6 22.7 32.6 22.8 32.6C23.4 32.5 23.8 32 23.8 31.4 23.8 30.7 23.2 30.1 22.6 30.1L22 30.1C19.2 30.1 17 27.7 17 24.9 17 22 19.3 19.7 22.1 19.6L22.9 19.6C23 19.6 23.2 19.5 23.3 19.4 23.4 19.2 23.4 19.1 23.4 18.9L23.2 18.1C23.1 17.8 23.1 17.5 23.1 17.2 23.1 14.9 25 13 27.2 13 29.5 13 31.3 14.9 31.3 17.2 31.3 17.4 31.3 17.6 31.2 17.9 31.2 18 31.2 18.1 31.3 18.2 31.4 18.7 31.9 19.1 32.4 19.1 33 19.1 33.5 18.7 33.6 18.2L33.6 18.1C33.7 17.8 33.7 17.5 33.7 17.2 33.7 15.4 33 13.8 31.8 12.5 30.6 11.3 28.9 10.6 27.2 10.6" fill="#8B8D09"/></g></svg>
