<svg xmlns="http://www.w3.org/2000/svg" width="24" height="24" viewBox="0 0 201 201" version="1.1"><g stroke="none" stroke-width="1" fill="none" fill-rule="evenodd"><rect fill="#FF5700" x="0" y="0" width="201" height="201"/><path d="M100-0.3C44.7-0.3-0.3 44.7-0.3 100 -0.3 155.3 44.7 200.3 100 200.3 155.3 200.3 200.3 155.3 200.3 100 200.3 44.7 155.3-0.3 100-0.3L100-0.3Z" fill="#FF5700"/><g transform="translate(56.000000, 38.000000)" fill="#FFFFFF"><path d="M61.4 124.3L34.3 71.1 50.4 71.1 61.4 92.6 72.2 71.1 88.3 71.1 61.4 124.3M35.9 42.2L50.6 71.2 72.1 71.2 35.7-0.3 -0.3 71.2 21.3 71.2 35.9 42.2 35.9 42.2Z"/></g></g></svg>
